<mxfile host="Electron" modified="2024-04-14T16:42:08.989Z" agent="Mozilla/5.0 (Windows NT 10.0; Win64; x64) AppleWebKit/537.36 (KHTML, like Gecko) draw.io/24.1.0 Chrome/120.0.6099.109 Electron/28.1.0 Safari/537.36" etag="bY5eF6j3J6wDl8zVNoCd" version="24.1.0" type="device">
  <diagram name="第 1 页" id="REAQ-yv0cRqFSGJcmG2Q">
    <mxGraphModel dx="2327" dy="2056" grid="1" gridSize="10" guides="1" tooltips="1" connect="1" arrows="1" fold="1" page="1" pageScale="1" pageWidth="827" pageHeight="1169" math="0" shadow="0">
      <root>
        <mxCell id="0" />
        <mxCell id="1" parent="0" />
        <mxCell id="G0YlaG4Pfh-gdhV9O5Ob-1" style="edgeStyle=none;curved=1;rounded=0;orthogonalLoop=1;jettySize=auto;html=1;exitX=0.5;exitY=0;exitDx=0;exitDy=0;entryX=0;entryY=0.5;entryDx=0;entryDy=0;fontSize=12;startSize=8;endSize=8;" edge="1" parent="1" source="G0YlaG4Pfh-gdhV9O5Ob-4" target="G0YlaG4Pfh-gdhV9O5Ob-26">
          <mxGeometry relative="1" as="geometry" />
        </mxCell>
        <mxCell id="G0YlaG4Pfh-gdhV9O5Ob-2" style="edgeStyle=none;curved=1;rounded=0;orthogonalLoop=1;jettySize=auto;html=1;exitX=0.5;exitY=1;exitDx=0;exitDy=0;entryX=0;entryY=0.5;entryDx=0;entryDy=0;fontSize=12;startSize=8;endSize=8;" edge="1" parent="1" source="G0YlaG4Pfh-gdhV9O5Ob-4" target="G0YlaG4Pfh-gdhV9O5Ob-18">
          <mxGeometry relative="1" as="geometry" />
        </mxCell>
        <mxCell id="G0YlaG4Pfh-gdhV9O5Ob-3" value="人像信息" style="edgeLabel;html=1;align=center;verticalAlign=middle;resizable=0;points=[];fontSize=16;" vertex="1" connectable="0" parent="G0YlaG4Pfh-gdhV9O5Ob-2">
          <mxGeometry x="-0.0944" y="2" relative="1" as="geometry">
            <mxPoint as="offset" />
          </mxGeometry>
        </mxCell>
        <mxCell id="G0YlaG4Pfh-gdhV9O5Ob-4" value="用户" style="rounded=0;whiteSpace=wrap;html=1;fontSize=16;" vertex="1" parent="1">
          <mxGeometry x="-340" y="-220" width="120" height="60" as="geometry" />
        </mxCell>
        <mxCell id="G0YlaG4Pfh-gdhV9O5Ob-5" style="edgeStyle=none;curved=1;rounded=0;orthogonalLoop=1;jettySize=auto;html=1;exitX=0.5;exitY=1;exitDx=0;exitDy=0;entryX=0.5;entryY=0;entryDx=0;entryDy=0;fontSize=12;startSize=8;endSize=8;" edge="1" parent="1" source="G0YlaG4Pfh-gdhV9O5Ob-9" target="G0YlaG4Pfh-gdhV9O5Ob-34">
          <mxGeometry relative="1" as="geometry" />
        </mxCell>
        <mxCell id="G0YlaG4Pfh-gdhV9O5Ob-6" value="管理签到信息" style="edgeLabel;html=1;align=center;verticalAlign=middle;resizable=0;points=[];fontSize=16;" vertex="1" connectable="0" parent="G0YlaG4Pfh-gdhV9O5Ob-5">
          <mxGeometry x="-0.259" y="-4" relative="1" as="geometry">
            <mxPoint x="-1" y="17" as="offset" />
          </mxGeometry>
        </mxCell>
        <mxCell id="G0YlaG4Pfh-gdhV9O5Ob-7" style="edgeStyle=none;curved=1;rounded=0;orthogonalLoop=1;jettySize=auto;html=1;exitX=0.5;exitY=0;exitDx=0;exitDy=0;entryX=0.75;entryY=1;entryDx=0;entryDy=0;fontSize=12;startSize=8;endSize=8;" edge="1" parent="1" source="G0YlaG4Pfh-gdhV9O5Ob-9" target="G0YlaG4Pfh-gdhV9O5Ob-32">
          <mxGeometry relative="1" as="geometry" />
        </mxCell>
        <mxCell id="G0YlaG4Pfh-gdhV9O5Ob-8" value="录入个人信息" style="edgeLabel;html=1;align=center;verticalAlign=middle;resizable=0;points=[];fontSize=16;" vertex="1" connectable="0" parent="G0YlaG4Pfh-gdhV9O5Ob-7">
          <mxGeometry x="-0.2681" y="-6" relative="1" as="geometry">
            <mxPoint y="-1" as="offset" />
          </mxGeometry>
        </mxCell>
        <mxCell id="G0YlaG4Pfh-gdhV9O5Ob-9" value="管理员" style="rounded=0;whiteSpace=wrap;html=1;fontSize=16;" vertex="1" parent="1">
          <mxGeometry x="650" y="-150" width="120" height="60" as="geometry" />
        </mxCell>
        <mxCell id="G0YlaG4Pfh-gdhV9O5Ob-10" style="edgeStyle=none;curved=1;rounded=0;orthogonalLoop=1;jettySize=auto;html=1;exitX=1;exitY=0.5;exitDx=0;exitDy=0;entryX=0;entryY=0.5;entryDx=0;entryDy=0;fontSize=12;startSize=8;endSize=8;" edge="1" parent="1" source="G0YlaG4Pfh-gdhV9O5Ob-14" target="G0YlaG4Pfh-gdhV9O5Ob-15">
          <mxGeometry relative="1" as="geometry" />
        </mxCell>
        <mxCell id="G0YlaG4Pfh-gdhV9O5Ob-11" value="用户信息" style="edgeLabel;html=1;align=center;verticalAlign=middle;resizable=0;points=[];fontSize=16;" vertex="1" connectable="0" parent="G0YlaG4Pfh-gdhV9O5Ob-10">
          <mxGeometry x="-0.171" relative="1" as="geometry">
            <mxPoint x="1" y="-19" as="offset" />
          </mxGeometry>
        </mxCell>
        <mxCell id="G0YlaG4Pfh-gdhV9O5Ob-12" style="edgeStyle=none;curved=1;rounded=0;orthogonalLoop=1;jettySize=auto;html=1;exitX=0.25;exitY=1;exitDx=0;exitDy=0;entryX=0.165;entryY=0.009;entryDx=0;entryDy=0;fontSize=12;startSize=8;endSize=8;entryPerimeter=0;" edge="1" parent="1" source="G0YlaG4Pfh-gdhV9O5Ob-15" target="G0YlaG4Pfh-gdhV9O5Ob-23">
          <mxGeometry relative="1" as="geometry" />
        </mxCell>
        <mxCell id="G0YlaG4Pfh-gdhV9O5Ob-13" value="人脸历史记录" style="edgeLabel;html=1;align=center;verticalAlign=middle;resizable=0;points=[];fontSize=16;" vertex="1" connectable="0" parent="G0YlaG4Pfh-gdhV9O5Ob-12">
          <mxGeometry x="-0.2876" y="-1" relative="1" as="geometry">
            <mxPoint as="offset" />
          </mxGeometry>
        </mxCell>
        <mxCell id="G0YlaG4Pfh-gdhV9O5Ob-14" value="信息管理" style="rounded=1;whiteSpace=wrap;html=1;fontSize=16;arcSize=33;" vertex="1" parent="1">
          <mxGeometry x="100" y="-310" width="120" height="60" as="geometry" />
        </mxCell>
        <mxCell id="G0YlaG4Pfh-gdhV9O5Ob-15" value="用户信息表" style="shape=partialRectangle;whiteSpace=wrap;html=1;left=0;right=0;fillColor=none;fontSize=16;" vertex="1" parent="1">
          <mxGeometry x="340" y="-312" width="120" height="60" as="geometry" />
        </mxCell>
        <mxCell id="G0YlaG4Pfh-gdhV9O5Ob-16" style="edgeStyle=none;curved=1;rounded=0;orthogonalLoop=1;jettySize=auto;html=1;exitX=1;exitY=0.5;exitDx=0;exitDy=0;entryX=0;entryY=0.5;entryDx=0;entryDy=0;fontSize=12;startSize=8;endSize=8;" edge="1" parent="1" source="G0YlaG4Pfh-gdhV9O5Ob-18" target="G0YlaG4Pfh-gdhV9O5Ob-23">
          <mxGeometry relative="1" as="geometry" />
        </mxCell>
        <mxCell id="G0YlaG4Pfh-gdhV9O5Ob-17" value="人像信息" style="edgeLabel;html=1;align=center;verticalAlign=middle;resizable=0;points=[];fontSize=16;" vertex="1" connectable="0" parent="G0YlaG4Pfh-gdhV9O5Ob-16">
          <mxGeometry x="-0.1123" y="1" relative="1" as="geometry">
            <mxPoint as="offset" />
          </mxGeometry>
        </mxCell>
        <mxCell id="G0YlaG4Pfh-gdhV9O5Ob-18" value="图像采集" style="rounded=1;whiteSpace=wrap;html=1;fontSize=16;arcSize=33;" vertex="1" parent="1">
          <mxGeometry x="-190" y="-50" width="120" height="60" as="geometry" />
        </mxCell>
        <mxCell id="G0YlaG4Pfh-gdhV9O5Ob-19" style="edgeStyle=none;curved=1;rounded=0;orthogonalLoop=1;jettySize=auto;html=1;exitX=1;exitY=0.5;exitDx=0;exitDy=0;entryX=0;entryY=0.5;entryDx=0;entryDy=0;fontSize=12;startSize=8;endSize=8;" edge="1" parent="1" source="G0YlaG4Pfh-gdhV9O5Ob-23" target="G0YlaG4Pfh-gdhV9O5Ob-29">
          <mxGeometry relative="1" as="geometry" />
        </mxCell>
        <mxCell id="G0YlaG4Pfh-gdhV9O5Ob-20" value="处理数据" style="edgeLabel;html=1;align=center;verticalAlign=middle;resizable=0;points=[];fontSize=16;" vertex="1" connectable="0" parent="G0YlaG4Pfh-gdhV9O5Ob-19">
          <mxGeometry x="-0.4141" y="-1" relative="1" as="geometry">
            <mxPoint x="25" y="-21" as="offset" />
          </mxGeometry>
        </mxCell>
        <mxCell id="G0YlaG4Pfh-gdhV9O5Ob-21" style="edgeStyle=none;curved=1;rounded=0;orthogonalLoop=1;jettySize=auto;html=1;exitX=0.75;exitY=0;exitDx=0;exitDy=0;entryX=0.75;entryY=1;entryDx=0;entryDy=0;fontSize=12;startSize=8;endSize=8;" edge="1" parent="1" source="G0YlaG4Pfh-gdhV9O5Ob-23" target="G0YlaG4Pfh-gdhV9O5Ob-15">
          <mxGeometry relative="1" as="geometry" />
        </mxCell>
        <mxCell id="G0YlaG4Pfh-gdhV9O5Ob-22" value="更新人脸信息" style="edgeLabel;html=1;align=center;verticalAlign=middle;resizable=0;points=[];fontSize=16;" vertex="1" connectable="0" parent="G0YlaG4Pfh-gdhV9O5Ob-21">
          <mxGeometry x="-0.1854" y="-1" relative="1" as="geometry">
            <mxPoint as="offset" />
          </mxGeometry>
        </mxCell>
        <mxCell id="G0YlaG4Pfh-gdhV9O5Ob-23" value="图像处理" style="rounded=1;whiteSpace=wrap;html=1;fontSize=16;arcSize=33;" vertex="1" parent="1">
          <mxGeometry x="30" y="-50" width="120" height="60" as="geometry" />
        </mxCell>
        <mxCell id="G0YlaG4Pfh-gdhV9O5Ob-24" style="edgeStyle=none;curved=1;rounded=0;orthogonalLoop=1;jettySize=auto;html=1;exitX=1;exitY=0.5;exitDx=0;exitDy=0;fontSize=12;startSize=8;endSize=8;" edge="1" parent="1" source="G0YlaG4Pfh-gdhV9O5Ob-26" target="G0YlaG4Pfh-gdhV9O5Ob-14">
          <mxGeometry relative="1" as="geometry" />
        </mxCell>
        <mxCell id="G0YlaG4Pfh-gdhV9O5Ob-25" value="合法信息" style="edgeLabel;html=1;align=center;verticalAlign=middle;resizable=0;points=[];fontSize=16;" vertex="1" connectable="0" parent="G0YlaG4Pfh-gdhV9O5Ob-24">
          <mxGeometry x="-0.391" y="6" relative="1" as="geometry">
            <mxPoint x="13" y="-14" as="offset" />
          </mxGeometry>
        </mxCell>
        <mxCell id="G0YlaG4Pfh-gdhV9O5Ob-26" value="1.信息处理" style="rounded=1;whiteSpace=wrap;html=1;fontSize=16;arcSize=33;" vertex="1" parent="1">
          <mxGeometry x="-140" y="-310" width="120" height="60" as="geometry" />
        </mxCell>
        <mxCell id="G0YlaG4Pfh-gdhV9O5Ob-27" value="个人信息" style="text;html=1;align=center;verticalAlign=middle;resizable=0;points=[];autosize=1;strokeColor=none;fillColor=none;fontSize=16;" vertex="1" parent="1">
          <mxGeometry x="-245" y="-282" width="90" height="30" as="geometry" />
        </mxCell>
        <mxCell id="G0YlaG4Pfh-gdhV9O5Ob-28" style="edgeStyle=none;curved=1;rounded=0;orthogonalLoop=1;jettySize=auto;html=1;exitX=0.5;exitY=1;exitDx=0;exitDy=0;entryX=0.5;entryY=0;entryDx=0;entryDy=0;fontSize=12;startSize=8;endSize=8;" edge="1" parent="1" source="G0YlaG4Pfh-gdhV9O5Ob-29" target="G0YlaG4Pfh-gdhV9O5Ob-30">
          <mxGeometry relative="1" as="geometry" />
        </mxCell>
        <mxCell id="G0YlaG4Pfh-gdhV9O5Ob-29" value="签到处理" style="rounded=1;whiteSpace=wrap;html=1;fontSize=16;arcSize=33;" vertex="1" parent="1">
          <mxGeometry x="270" y="-50" width="120" height="60" as="geometry" />
        </mxCell>
        <mxCell id="G0YlaG4Pfh-gdhV9O5Ob-30" value="签到表" style="shape=partialRectangle;whiteSpace=wrap;html=1;left=0;right=0;fillColor=none;fontSize=16;" vertex="1" parent="1">
          <mxGeometry x="270" y="110" width="120" height="60" as="geometry" />
        </mxCell>
        <mxCell id="G0YlaG4Pfh-gdhV9O5Ob-31" style="edgeStyle=none;curved=1;rounded=0;orthogonalLoop=1;jettySize=auto;html=1;exitX=0;exitY=0.5;exitDx=0;exitDy=0;entryX=1;entryY=0.5;entryDx=0;entryDy=0;fontSize=12;startSize=8;endSize=8;" edge="1" parent="1" source="G0YlaG4Pfh-gdhV9O5Ob-32" target="G0YlaG4Pfh-gdhV9O5Ob-15">
          <mxGeometry relative="1" as="geometry" />
        </mxCell>
        <mxCell id="G0YlaG4Pfh-gdhV9O5Ob-32" value="个人信息管理" style="rounded=1;whiteSpace=wrap;html=1;fontSize=16;arcSize=33;" vertex="1" parent="1">
          <mxGeometry x="620" y="-320" width="120" height="60" as="geometry" />
        </mxCell>
        <mxCell id="G0YlaG4Pfh-gdhV9O5Ob-33" style="edgeStyle=none;curved=1;rounded=0;orthogonalLoop=1;jettySize=auto;html=1;exitX=0.25;exitY=1;exitDx=0;exitDy=0;entryX=1;entryY=0.5;entryDx=0;entryDy=0;fontSize=12;startSize=8;endSize=8;" edge="1" parent="1" source="G0YlaG4Pfh-gdhV9O5Ob-34" target="G0YlaG4Pfh-gdhV9O5Ob-30">
          <mxGeometry relative="1" as="geometry" />
        </mxCell>
        <mxCell id="G0YlaG4Pfh-gdhV9O5Ob-34" value="签到管理" style="rounded=1;whiteSpace=wrap;html=1;fontSize=16;arcSize=33;" vertex="1" parent="1">
          <mxGeometry x="650" y="80" width="120" height="60" as="geometry" />
        </mxCell>
        <mxCell id="G0YlaG4Pfh-gdhV9O5Ob-36" value="" style="endArrow=none;dashed=1;html=1;rounded=0;strokeColor=#FF0000;" edge="1" parent="1">
          <mxGeometry width="50" height="50" relative="1" as="geometry">
            <mxPoint x="550" y="230" as="sourcePoint" />
            <mxPoint x="550" y="-420" as="targetPoint" />
          </mxGeometry>
        </mxCell>
        <mxCell id="G0YlaG4Pfh-gdhV9O5Ob-37" value="" style="endArrow=none;dashed=1;html=100;rounded=0;strokeColor=#FF0000;arcSize=200;fillOpacity=100;strokeOpacity=100;perimeterSpacing=7;" edge="1" parent="1">
          <mxGeometry width="50" height="50" relative="1" as="geometry">
            <mxPoint x="20" y="240" as="sourcePoint" />
            <mxPoint x="20" y="-420" as="targetPoint" />
          </mxGeometry>
        </mxCell>
        <mxCell id="G0YlaG4Pfh-gdhV9O5Ob-38" value="" style="endArrow=none;dashed=1;html=1;rounded=0;strokeColor=#FF0000;jumpSize=23;endSize=20;targetPerimeterSpacing=11;sourcePerimeterSpacing=15;fillColor=#f8cecc;" edge="1" parent="1">
          <mxGeometry width="50" height="50" relative="1" as="geometry">
            <mxPoint x="250" y="240" as="sourcePoint" />
            <mxPoint x="250" y="-420" as="targetPoint" />
          </mxGeometry>
        </mxCell>
        <mxCell id="G0YlaG4Pfh-gdhV9O5Ob-39" value="" style="endArrow=classic;html=1;rounded=0;" edge="1" parent="1">
          <mxGeometry relative="1" as="geometry">
            <mxPoint x="250" y="-70" as="sourcePoint" />
            <mxPoint x="410" y="-70" as="targetPoint" />
          </mxGeometry>
        </mxCell>
        <mxCell id="G0YlaG4Pfh-gdhV9O5Ob-40" value="Label" style="edgeLabel;resizable=0;html=1;;align=center;verticalAlign=middle;" connectable="0" vertex="1" parent="G0YlaG4Pfh-gdhV9O5Ob-39">
          <mxGeometry relative="1" as="geometry" />
        </mxCell>
        <mxCell id="G0YlaG4Pfh-gdhV9O5Ob-41" value="Source" style="edgeLabel;resizable=0;html=1;;align=left;verticalAlign=bottom;" connectable="0" vertex="1" parent="G0YlaG4Pfh-gdhV9O5Ob-39">
          <mxGeometry x="-1" relative="1" as="geometry" />
        </mxCell>
        <mxCell id="G0YlaG4Pfh-gdhV9O5Ob-44" value="&lt;b&gt;&lt;font style=&quot;font-size: 29px;&quot;&gt;输入&lt;/font&gt;&lt;/b&gt;" style="text;html=1;align=center;verticalAlign=middle;whiteSpace=wrap;rounded=0;" vertex="1" parent="1">
          <mxGeometry x="-170" y="-400" width="165" height="30" as="geometry" />
        </mxCell>
        <mxCell id="G0YlaG4Pfh-gdhV9O5Ob-45" value="&lt;b&gt;&lt;font style=&quot;font-size: 29px;&quot;&gt;输入&lt;/font&gt;&lt;/b&gt;" style="text;html=1;align=center;verticalAlign=middle;whiteSpace=wrap;rounded=0;" vertex="1" parent="1">
          <mxGeometry x="605" y="-400" width="165" height="30" as="geometry" />
        </mxCell>
        <mxCell id="G0YlaG4Pfh-gdhV9O5Ob-46" value="&lt;span style=&quot;font-size: 29px;&quot;&gt;&lt;b&gt;输出&lt;/b&gt;&lt;/span&gt;" style="text;html=1;align=center;verticalAlign=middle;whiteSpace=wrap;rounded=0;" vertex="1" parent="1">
          <mxGeometry x="340" y="-400" width="165" height="30" as="geometry" />
        </mxCell>
        <mxCell id="G0YlaG4Pfh-gdhV9O5Ob-47" value="&lt;span style=&quot;font-size: 29px;&quot;&gt;&lt;b&gt;处理&lt;/b&gt;&lt;/span&gt;" style="text;html=1;align=center;verticalAlign=middle;whiteSpace=wrap;rounded=0;" vertex="1" parent="1">
          <mxGeometry x="50" y="-400" width="165" height="30" as="geometry" />
        </mxCell>
      </root>
    </mxGraphModel>
  </diagram>
</mxfile>
